<svg xmlns="http://www.w3.org/2000/svg" xmlns:xlink="http://www.w3.org/1999/xlink" width="500" zoomAndPan="magnify" viewBox="0 0 375 374.999991" height="500" preserveAspectRatio="xMidYMid meet" version="1.0"><path fill="#039be5" d="M 317.941406 56.257812 C 320.070312 58.390625 322.152344 60.574219 324.175781 62.808594 C 326.203125 65.042969 328.167969 67.324219 330.082031 69.65625 C 331.996094 71.988281 333.851562 74.363281 335.648438 76.789062 C 337.441406 79.207031 339.179688 81.671875 340.855469 84.179688 C 342.53125 86.6875 344.144531 89.234375 345.695312 91.820312 C 347.246094 94.40625 348.730469 97.03125 350.148438 99.691406 C 351.570312 102.347656 352.929688 105.042969 354.214844 107.769531 C 355.503906 110.496094 356.730469 113.25 357.882812 116.035156 C 359.035156 118.824219 360.121094 121.632812 361.136719 124.472656 C 362.152344 127.3125 363.097656 130.175781 363.976562 133.0625 C 364.851562 135.945312 365.65625 138.851562 366.386719 141.777344 C 367.117188 144.699219 367.78125 147.640625 368.371094 150.601562 C 368.953125 153.558594 369.472656 156.527344 369.917969 159.511719 C 370.355469 162.492188 370.722656 165.484375 371.023438 168.488281 C 371.316406 171.488281 371.539062 174.492188 371.683594 177.507812 C 371.835938 180.519531 371.90625 183.53125 371.90625 186.546875 C 371.90625 189.5625 371.835938 192.574219 371.683594 195.589844 C 371.539062 198.597656 371.316406 201.609375 371.023438 204.609375 C 370.726562 207.609375 370.355469 210.597656 369.917969 213.582031 C 369.472656 216.5625 368.960938 219.535156 368.371094 222.492188 C 367.78125 225.449219 367.121094 228.390625 366.386719 231.320312 C 365.65625 234.242188 364.851562 237.148438 363.976562 240.035156 C 363.101562 242.917969 362.15625 245.78125 361.140625 248.621094 C 360.121094 251.460938 359.039062 254.273438 357.882812 257.058594 C 356.734375 259.84375 355.507812 262.601562 354.21875 265.328125 C 352.933594 268.054688 351.574219 270.742188 350.152344 273.40625 C 348.730469 276.0625 347.246094 278.6875 345.699219 281.273438 C 344.148438 283.859375 342.535156 286.40625 340.859375 288.914062 C 339.183594 291.421875 337.445312 293.886719 335.652344 296.308594 C 333.855469 298.730469 332 301.105469 330.085938 303.4375 C 328.171875 305.769531 326.207031 308.054688 324.183594 310.285156 C 322.15625 312.519531 320.078125 314.707031 317.945312 316.839844 C 315.8125 318.964844 313.628906 321.046875 311.394531 323.070312 C 309.160156 325.097656 306.878906 327.066406 304.546875 328.980469 C 302.21875 330.894531 299.839844 332.746094 297.414062 334.546875 C 294.996094 336.339844 292.53125 338.074219 290.023438 339.75 C 287.515625 341.425781 284.972656 343.039062 282.382812 344.589844 C 279.796875 346.140625 277.171875 347.628906 274.515625 349.046875 C 271.855469 350.46875 269.160156 351.824219 266.4375 353.113281 C 263.710938 354.402344 260.953125 355.625 258.167969 356.78125 C 255.378906 357.929688 252.570312 359.019531 249.730469 360.03125 C 246.890625 361.050781 244.03125 361.996094 241.144531 362.871094 C 238.257812 363.746094 235.351562 364.550781 232.425781 365.28125 C 229.503906 366.015625 226.5625 366.675781 223.605469 367.265625 C 220.644531 367.851562 217.675781 368.367188 214.691406 368.8125 C 211.710938 369.253906 208.71875 369.621094 205.714844 369.917969 C 202.714844 370.214844 199.710938 370.4375 196.695312 370.582031 C 193.6875 370.730469 190.671875 370.804688 187.65625 370.804688 C 184.640625 370.804688 181.628906 370.730469 178.613281 370.585938 C 175.605469 370.4375 172.597656 370.214844 169.59375 369.917969 C 166.59375 369.625 163.605469 369.253906 160.621094 368.8125 C 157.640625 368.367188 154.667969 367.855469 151.710938 367.265625 C 148.753906 366.675781 145.8125 366.015625 142.882812 365.28125 C 139.960938 364.550781 137.054688 363.746094 134.167969 362.871094 C 131.285156 362 128.421875 361.054688 125.582031 360.035156 C 122.742188 359.023438 119.929688 357.933594 117.144531 356.78125 C 114.359375 355.628906 111.601562 354.40625 108.875 353.117188 C 106.148438 351.828125 103.460938 350.472656 100.796875 349.050781 C 98.140625 347.628906 95.519531 346.140625 92.929688 344.59375 C 90.34375 343.042969 87.796875 341.433594 85.289062 339.753906 C 82.785156 338.078125 80.316406 336.34375 77.894531 334.550781 C 75.472656 332.75 73.097656 330.898438 70.765625 328.984375 C 68.4375 327.070312 66.152344 325.101562 63.917969 323.078125 C 61.683594 321.050781 59.5 318.972656 57.371094 316.84375 C 55.238281 314.710938 53.15625 312.523438 51.132812 310.289062 C 49.105469 308.058594 47.140625 305.773438 45.222656 303.445312 C 43.308594 301.113281 41.457031 298.734375 39.660156 296.316406 C 37.863281 293.890625 36.128906 291.429688 34.453125 288.917969 C 32.777344 286.410156 31.164062 283.867188 29.613281 281.277344 C 28.0625 278.691406 26.578125 276.070312 25.15625 273.410156 C 23.738281 270.753906 22.378906 268.058594 21.089844 265.332031 C 19.800781 262.605469 18.578125 259.851562 17.421875 257.0625 C 16.273438 254.277344 15.1875 251.464844 14.171875 248.625 C 13.152344 245.785156 12.207031 242.925781 11.332031 240.039062 C 10.457031 237.15625 9.652344 234.246094 8.921875 231.324219 C 8.191406 228.398438 7.527344 225.457031 6.9375 222.5 C 6.351562 219.539062 5.835938 216.570312 5.394531 213.585938 C 4.949219 210.605469 4.582031 207.613281 4.285156 204.613281 C 3.988281 201.613281 3.765625 198.605469 3.621094 195.59375 C 3.472656 192.585938 3.398438 189.566406 3.398438 186.554688 C 3.398438 183.535156 3.472656 180.523438 3.621094 177.511719 C 3.765625 174.5 3.988281 171.492188 4.285156 168.492188 C 4.578125 165.488281 4.949219 162.5 5.390625 159.515625 C 5.835938 156.535156 6.347656 153.5625 6.9375 150.605469 C 7.527344 147.648438 8.1875 144.710938 8.921875 141.78125 C 9.652344 138.855469 10.457031 135.953125 11.332031 133.066406 C 12.203125 130.179688 13.152344 127.316406 14.167969 124.476562 C 15.1875 121.636719 16.269531 118.828125 17.421875 116.039062 C 18.578125 113.257812 19.796875 110.5 21.085938 107.773438 C 22.375 105.046875 23.730469 102.355469 25.152344 99.695312 C 26.574219 97.035156 28.0625 94.414062 29.609375 91.824219 C 31.160156 89.242188 32.777344 86.691406 34.449219 84.183594 C 36.125 81.679688 37.859375 79.214844 39.660156 76.792969 C 41.453125 74.367188 43.304688 71.992188 45.21875 69.664062 C 47.132812 67.332031 49.101562 65.046875 51.128906 62.8125 C 53.152344 60.578125 55.234375 58.394531 57.363281 56.265625 C 59.496094 54.132812 61.679688 52.054688 63.914062 50.03125 C 66.148438 48 68.429688 46.035156 70.757812 44.121094 C 73.09375 42.207031 75.46875 40.351562 77.890625 38.554688 C 80.3125 36.761719 82.773438 35.023438 85.285156 33.347656 C 87.792969 31.671875 90.335938 30.058594 92.925781 28.507812 C 95.511719 26.957031 98.136719 25.476562 100.792969 24.054688 C 103.453125 22.632812 106.144531 21.277344 108.871094 19.988281 C 111.597656 18.699219 114.351562 17.476562 117.140625 16.320312 C 119.925781 15.167969 122.738281 14.082031 125.578125 13.066406 C 128.417969 12.050781 131.28125 11.105469 134.164062 10.230469 C 137.046875 9.351562 139.957031 8.546875 142.878906 7.816406 C 145.804688 7.085938 148.746094 6.421875 151.707031 5.835938 C 154.664062 5.25 157.632812 4.730469 160.617188 4.292969 C 163.597656 3.847656 166.589844 3.480469 169.589844 3.179688 C 172.59375 2.886719 175.597656 2.664062 178.609375 2.519531 C 181.625 2.367188 184.636719 2.296875 187.648438 2.296875 C 190.667969 2.296875 193.679688 2.367188 196.691406 2.519531 C 199.703125 2.664062 202.710938 2.886719 205.710938 3.179688 C 208.714844 3.476562 211.703125 3.847656 214.6875 4.289062 C 217.667969 4.730469 220.640625 5.246094 223.597656 5.835938 C 226.554688 6.421875 229.496094 7.082031 232.421875 7.816406 C 235.347656 8.546875 238.25 9.351562 241.140625 10.230469 C 244.023438 11.101562 246.886719 12.050781 249.726562 13.0625 C 252.566406 14.082031 255.375 15.164062 258.164062 16.320312 C 260.945312 17.476562 263.707031 18.695312 266.429688 19.984375 C 269.15625 21.269531 271.847656 22.628906 274.507812 24.050781 C 277.167969 25.472656 279.792969 26.957031 282.378906 28.503906 C 284.960938 30.054688 287.511719 31.671875 290.019531 33.34375 C 292.523438 35.019531 294.992188 36.757812 297.410156 38.554688 C 299.835938 40.347656 302.210938 42.203125 304.539062 44.117188 C 306.875 46.03125 309.15625 47.996094 311.390625 50.027344 C 313.625 52.050781 315.808594 54.128906 317.941406 56.257812 Z M 317.941406 56.257812 " fill-opacity="1" fill-rule="nonzero"/><path fill="#fffffe" d="M 163.078125 204.953125 C 153.789062 195.660156 148.65625 183.140625 148.65625 170.015625 C 148.65625 156.882812 153.789062 144.363281 163.078125 135.070312 L 216.945312 81.207031 C 226.234375 71.917969 238.757812 66.785156 251.882812 66.785156 C 265.015625 66.785156 277.535156 71.917969 286.824219 81.207031 C 296.113281 90.496094 301.25 103.019531 301.25 116.148438 C 301.25 129.277344 296.113281 141.796875 286.824219 151.085938 L 245.097656 192.8125 L 229.925781 177.644531 L 271.652344 135.917969 C 276.914062 130.65625 279.792969 123.582031 279.792969 116.148438 C 279.792969 108.726562 276.90625 101.636719 271.652344 96.378906 C 266.394531 91.117188 259.316406 88.234375 251.882812 88.234375 C 244.460938 88.234375 237.375 91.117188 232.117188 96.371094 L 178.25 150.234375 C 172.992188 155.492188 170.113281 162.574219 170.113281 170.003906 C 170.113281 177.429688 173 184.515625 178.257812 189.773438 L 181.546875 193.0625 L 166.367188 208.242188 Z M 163.078125 204.953125 " fill-opacity="1" fill-rule="evenodd"/><path fill="#fffffe" d="M 212.230469 168.148438 C 221.519531 177.4375 226.65625 189.957031 226.65625 203.085938 C 226.65625 216.210938 221.519531 228.738281 212.230469 238.023438 L 158.367188 291.886719 C 149.078125 301.179688 136.554688 306.316406 123.429688 306.316406 C 110.296875 306.316406 97.777344 301.179688 88.488281 291.886719 C 79.195312 282.597656 74.0625 270.078125 74.0625 256.949219 C 74.0625 243.824219 79.195312 231.296875 88.488281 222.007812 L 130.214844 180.285156 L 145.386719 195.457031 L 103.65625 237.179688 C 98.398438 242.4375 95.519531 249.519531 95.519531 256.949219 C 95.519531 264.375 98.40625 271.460938 103.65625 276.71875 C 108.917969 281.976562 115.996094 284.863281 123.429688 284.863281 C 130.851562 284.863281 137.9375 281.976562 143.195312 276.726562 L 197.0625 222.859375 C 202.320312 217.601562 205.199219 210.527344 205.199219 203.09375 C 205.199219 195.671875 202.3125 188.585938 197.050781 183.324219 L 193.769531 180.039062 L 208.933594 164.867188 Z M 212.230469 168.148438 " fill-opacity="1" fill-rule="evenodd"/><path fill="#ffffff" d="M 243.761719 267.039062 C 242.953125 266.320312 242.125 265.746094 241.273438 265.328125 C 240.414062 264.898438 239.601562 264.679688 238.835938 264.679688 C 238.070312 264.679688 237.429688 264.972656 236.910156 265.554688 C 236.277344 266.257812 235.925781 267.050781 235.863281 267.945312 C 235.789062 268.839844 235.925781 269.765625 236.28125 270.722656 C 236.605469 271.589844 237.101562 272.46875 237.769531 273.375 C 238.425781 274.277344 239.191406 275.199219 240.0625 276.136719 C 240.933594 277.066406 241.832031 278.003906 242.746094 278.945312 C 243.660156 279.882812 244.53125 280.820312 245.34375 281.757812 C 246.152344 282.6875 246.832031 283.609375 247.382812 284.519531 C 247.574219 284.835938 247.742188 285.144531 247.882812 285.441406 C 248.03125 285.746094 248.148438 286.046875 248.238281 286.347656 C 248.710938 285.628906 249.226562 284.890625 249.789062 284.132812 C 250.347656 283.371094 250.925781 282.648438 251.535156 281.96875 C 252.359375 281.042969 253.203125 280.269531 254.054688 279.640625 C 254.902344 279.007812 255.726562 278.621094 256.527344 278.480469 C 257.332031 278.339844 258.050781 278.554688 258.691406 279.125 C 259.214844 279.601562 259.5 280.125 259.53125 280.707031 C 259.5625 281.28125 259.410156 281.753906 259.078125 282.128906 L 259.0625 282.144531 C 258.875 282.351562 258.726562 282.402344 258.609375 282.292969 C 258.554688 282.25 258.546875 282.175781 258.578125 282.066406 C 258.640625 281.871094 258.714844 281.597656 258.804688 281.242188 C 258.902344 280.886719 258.714844 280.480469 258.253906 280.03125 L 258.15625 279.949219 C 257.597656 279.445312 257.011719 279.320312 256.394531 279.578125 C 255.78125 279.835938 255.15625 280.320312 254.523438 281.03125 C 253.863281 281.773438 253.214844 282.675781 252.566406 283.730469 C 251.921875 284.777344 251.308594 285.835938 250.726562 286.914062 C 250.144531 287.980469 249.617188 288.941406 249.160156 289.789062 C 248.695312 290.640625 248.316406 291.230469 248.027344 291.566406 C 247.996094 291.597656 247.953125 291.621094 247.914062 291.644531 C 247.882812 291.667969 247.839844 291.699219 247.800781 291.742188 C 247.671875 291.828125 247.53125 291.84375 247.382812 291.792969 C 247.238281 291.746094 247.09375 291.6875 246.945312 291.613281 C 246.867188 291.570312 246.75 291.476562 246.589844 291.339844 C 246.4375 291.199219 246.300781 291.039062 246.1875 290.871094 C 246.0625 290.6875 246.023438 290.539062 246.054688 290.417969 C 246.1875 290.074219 246.371094 289.660156 246.621094 289.175781 C 246.867188 288.691406 247.148438 288.179688 247.460938 287.640625 C 247.351562 287.210938 247.1875 286.796875 246.960938 286.394531 C 246.742188 286 246.480469 285.605469 246.167969 285.214844 C 245.898438 284.894531 245.613281 284.578125 245.296875 284.261719 C 244.984375 283.953125 244.660156 283.644531 244.3125 283.339844 C 243.546875 282.65625 242.726562 281.960938 241.855469 281.257812 C 240.976562 280.558594 240.109375 279.832031 239.269531 279.078125 C 238.054688 277.988281 236.984375 276.816406 236.054688 275.554688 C 235.117188 274.292969 234.554688 272.863281 234.359375 271.257812 C 234.230469 270.183594 234.324219 269.121094 234.632812 268.074219 C 234.949219 267.03125 235.519531 266.050781 236.347656 265.132812 C 237.152344 264.230469 238.074219 263.71875 239.109375 263.597656 C 240.136719 263.46875 241.175781 263.632812 242.242188 264.082031 C 243.308594 264.535156 244.3125 265.183594 245.25 266.023438 C 246.078125 266.765625 246.804688 267.617188 247.429688 268.574219 C 248.0625 269.535156 248.53125 270.527344 248.835938 271.546875 C 249.144531 272.5625 249.230469 273.5625 249.09375 274.554688 C 248.953125 275.535156 248.527344 276.417969 247.816406 277.203125 C 247.222656 277.871094 246.46875 278.253906 245.554688 278.347656 C 244.644531 278.4375 243.625 278.097656 242.5 277.332031 C 242.386719 277.265625 242.289062 277.203125 242.210938 277.136719 C 242.125 277.066406 242.042969 276.988281 241.953125 276.910156 C 241.628906 276.613281 241.324219 276.277344 241.03125 275.910156 C 240.742188 275.546875 240.554688 275.238281 240.464844 274.988281 C 240.402344 274.753906 240.433594 274.5625 240.5625 274.40625 C 240.652344 274.308594 240.757812 274.320312 240.886719 274.421875 C 240.996094 274.519531 241.097656 274.660156 241.191406 274.84375 C 241.507812 275.359375 241.914062 275.839844 242.40625 276.28125 C 242.871094 276.695312 243.386719 277.03125 243.957031 277.300781 C 244.515625 277.570312 245.066406 277.695312 245.605469 277.671875 C 246.140625 277.652344 246.609375 277.421875 247.007812 276.976562 C 247.535156 276.386719 247.808594 275.554688 247.832031 274.488281 C 247.867188 273.421875 247.550781 272.242188 246.894531 270.949219 C 246.25 269.648438 245.207031 268.34375 243.761719 267.039062 Z M 243.761719 267.039062 " fill-opacity="1" fill-rule="nonzero"/><path fill="#ffffff" d="M 273.101562 260.6875 L 273.148438 260.734375 C 273.589844 261.242188 273.847656 261.851562 273.925781 262.558594 C 274.007812 263.261719 273.761719 263.941406 273.183594 264.597656 C 272.15625 265.738281 270.960938 266.140625 269.59375 265.792969 C 268.238281 265.449219 266.808594 264.605469 265.3125 263.253906 C 264.527344 262.554688 263.730469 261.746094 262.921875 260.816406 C 262.121094 259.878906 261.324219 258.859375 260.515625 257.761719 C 260.363281 257.535156 260.0625 257.082031 259.609375 256.40625 C 259.15625 255.726562 258.613281 254.992188 257.980469 254.191406 C 257.339844 253.394531 256.683594 252.683594 255.992188 252.058594 C 255.355469 251.488281 254.726562 251.082031 254.101562 250.832031 C 253.480469 250.585938 252.902344 250.648438 252.371094 251.023438 C 252.289062 251.089844 252.207031 251.152344 252.128906 251.21875 C 252.058594 251.273438 251.984375 251.34375 251.921875 251.429688 C 251.382812 252.023438 251.121094 252.769531 251.128906 253.675781 C 251.140625 254.578125 251.339844 255.5625 251.726562 256.613281 C 252.113281 257.671875 252.621094 258.742188 253.246094 259.832031 C 253.859375 260.921875 254.511719 261.960938 255.199219 262.964844 C 255.878906 263.957031 256.523438 264.835938 257.136719 265.597656 C 257.753906 266.351562 258.246094 266.9375 258.625 267.359375 C 259.214844 268.003906 259.890625 268.726562 260.644531 269.523438 C 261.394531 270.3125 262.210938 271.179688 263.085938 272.125 C 263.296875 272.34375 263.375 272.691406 263.308594 273.175781 C 263.246094 273.652344 263.089844 274.039062 262.839844 274.339844 L 262.777344 274.417969 C 262.550781 274.691406 262.285156 274.882812 261.984375 275 C 261.683594 275.109375 261.445312 275.089844 261.273438 274.9375 C 260.726562 274.21875 259.988281 273.332031 259.078125 272.285156 C 258.160156 271.246094 257.148438 270.171875 256.039062 269.070312 C 255.503906 268.523438 254.859375 267.867188 254.117188 267.101562 C 253.375 266.335938 252.574219 265.574219 251.710938 264.804688 C 250.734375 263.925781 249.703125 263.09375 248.625 262.316406 C 247.550781 261.535156 246.484375 260.886719 245.425781 260.378906 C 244.359375 259.875 243.355469 259.617188 242.421875 259.605469 C 241.582031 259.605469 240.960938 259.824219 240.5625 260.265625 C 240.230469 260.644531 240.101562 261.15625 240.175781 261.800781 C 240.25 262.4375 240.605469 263.152344 241.242188 263.949219 C 241.382812 264.101562 241.539062 264.28125 241.710938 264.484375 C 241.882812 264.675781 242.078125 264.871094 242.289062 265.066406 C 243.046875 265.742188 243.957031 266.390625 245.019531 267.003906 C 246.078125 267.609375 247.148438 268.101562 248.238281 268.488281 C 249.316406 268.871094 250.289062 269.054688 251.160156 269.054688 C 251.226562 269.046875 251.28125 269.0625 251.324219 269.105469 C 251.386719 269.160156 251.371094 269.234375 251.273438 269.328125 C 251.175781 269.449219 250.992188 269.574219 250.707031 269.703125 C 250.417969 269.832031 250.078125 269.890625 249.691406 269.878906 C 248.226562 269.859375 246.757812 269.539062 245.28125 268.925781 C 243.792969 268.3125 242.5 267.519531 241.402344 266.550781 C 240.683594 265.90625 240.085938 265.203125 239.609375 264.433594 C 239.125 263.660156 238.863281 262.875 238.816406 262.074219 C 238.765625 261.570312 238.816406 261.105469 238.980469 260.6875 C 239.140625 260.257812 239.367188 259.875 239.65625 259.539062 C 240.121094 259.035156 240.691406 258.652344 241.371094 258.390625 C 242.046875 258.132812 242.71875 258.019531 243.375 258.054688 C 244.503906 258.109375 245.664062 258.359375 246.847656 258.8125 C 248.035156 259.265625 249.179688 259.847656 250.289062 260.558594 C 251.386719 261.269531 252.402344 262.039062 253.324219 262.867188 C 253.542969 263.0625 253.753906 263.261719 253.957031 263.464844 C 254.148438 263.660156 254.355469 263.859375 254.570312 264.0625 C 253.644531 262.738281 252.835938 261.425781 252.144531 260.121094 C 251.449219 258.820312 250.925781 257.566406 250.578125 256.371094 C 250.222656 255.167969 250.074219 254.105469 250.125 253.191406 C 250.246094 251.703125 250.671875 250.550781 251.402344 249.734375 C 252.203125 248.851562 253.238281 248.464844 254.503906 248.570312 C 255.777344 248.679688 257.035156 249.292969 258.285156 250.410156 C 258.640625 250.734375 259 251.101562 259.367188 251.507812 C 260.34375 252.683594 261.296875 253.988281 262.226562 255.417969 C 263.164062 256.851562 264.105469 258.207031 265.054688 259.476562 C 265.3125 259.820312 265.703125 260.308594 266.21875 260.929688 C 266.742188 261.554688 267.320312 262.152344 267.945312 262.722656 C 268.472656 263.199219 269.03125 263.601562 269.609375 263.933594 C 270.191406 264.257812 270.75 264.417969 271.292969 264.417969 C 271.828125 264.410156 272.3125 264.160156 272.746094 263.675781 C 273.089844 263.300781 273.25 262.890625 273.230469 262.449219 C 273.21875 262.007812 273.078125 261.574219 272.808594 261.15625 C 272.699219 260.960938 272.699219 260.808594 272.808594 260.6875 C 272.894531 260.589844 272.992188 260.589844 273.101562 260.6875 Z M 273.101562 260.6875 " fill-opacity="1" fill-rule="nonzero"/><path fill="#ffffff" d="M 274.804688 231.359375 C 275.535156 232.019531 276.03125 232.84375 276.289062 233.832031 C 276.546875 234.824219 276.601562 235.890625 276.453125 237.03125 C 276.308594 238.160156 275.988281 239.285156 275.484375 240.390625 C 274.972656 241.5 274.3125 242.507812 273.496094 243.410156 C 273.148438 243.800781 272.785156 244.164062 272.398438 244.496094 C 272.292969 244.589844 272.195312 244.671875 272.105469 244.738281 C 272.007812 244.800781 271.921875 244.875 271.832031 244.945312 C 272.476562 245.140625 273.253906 245.328125 274.15625 245.496094 C 275.0625 245.667969 276.023438 245.796875 277.050781 245.867188 C 278.082031 245.933594 279.089844 245.929688 280.070312 245.851562 C 281.058594 245.777344 281.964844 245.601562 282.785156 245.320312 C 283.601562 245.027344 284.246094 244.621094 284.722656 244.089844 C 285.085938 243.683594 285.28125 243.300781 285.304688 242.945312 C 285.324219 242.589844 285.132812 242.230469 284.722656 241.859375 C 284.367188 241.539062 283.835938 241.242188 283.125 240.972656 C 282.414062 240.707031 281.804688 240.488281 281.296875 240.328125 C 281.265625 240.316406 281.222656 240.289062 281.167969 240.246094 C 281.039062 240.128906 281.015625 240.019531 281.105469 239.921875 C 281.175781 239.847656 281.304688 239.820312 281.476562 239.839844 C 281.808594 239.90625 282.113281 239.980469 282.398438 240.050781 C 282.6875 240.128906 283.179688 240.308594 283.882812 240.601562 C 284.9375 241.019531 285.734375 241.480469 286.273438 241.972656 C 286.929688 242.554688 287.277344 243.203125 287.308594 243.914062 C 287.347656 244.617188 287.054688 245.320312 286.421875 246.03125 C 285.804688 246.71875 284.949219 247.234375 283.851562 247.5625 C 282.753906 247.886719 281.546875 248.066406 280.234375 248.097656 C 278.929688 248.121094 277.621094 248.027344 276.304688 247.824219 C 275 247.609375 273.824219 247.3125 272.769531 246.933594 C 271.714844 246.558594 270.90625 246.132812 270.34375 245.65625 L 270.296875 245.609375 C 269.964844 245.320312 269.871094 245.054688 270.023438 244.816406 L 270.136719 244.703125 L 270.183594 244.71875 L 270.199219 244.6875 C 270.695312 244.429688 271.179688 244.035156 271.652344 243.492188 C 272.171875 242.921875 272.625 242.246094 273.027344 241.457031 C 273.433594 240.671875 273.730469 239.945312 273.914062 239.277344 C 274.109375 238.546875 274.277344 237.734375 274.433594 236.835938 C 274.582031 235.933594 274.582031 235.042969 274.433594 234.171875 C 274.289062 233.296875 273.886719 232.5625 273.21875 231.957031 C 272.703125 231.503906 272.132812 231.320312 271.507812 231.390625 C 270.875 231.457031 270.214844 231.707031 269.535156 232.136719 C 268.859375 232.554688 268.191406 233.070312 267.535156 233.6875 C 266.878906 234.292969 266.273438 234.898438 265.722656 235.511719 C 265.316406 235.964844 264.945312 236.394531 264.609375 236.804688 C 264.265625 237.214844 264.007812 237.554688 263.832031 237.820312 C 263.554688 238.203125 263.1875 238.734375 262.734375 239.421875 C 262.273438 240.113281 261.804688 240.886719 261.328125 241.746094 C 260.84375 242.613281 260.390625 243.5 259.972656 244.414062 C 259.542969 245.332031 259.207031 246.222656 258.953125 247.09375 C 258.695312 247.96875 258.582031 248.742188 258.617188 249.421875 C 258.648438 250.101562 258.882812 250.632812 259.308594 251.023438 C 259.710938 251.390625 260.191406 251.519531 260.746094 251.410156 C 261.308594 251.304688 261.828125 250.984375 262.300781 250.457031 C 262.785156 249.90625 263.195312 249.164062 263.527344 248.226562 C 263.851562 247.289062 263.996094 246.167969 263.964844 244.851562 C 263.964844 244.785156 263.972656 244.75 263.980469 244.738281 C 264.023438 244.683594 264.089844 244.695312 264.171875 244.769531 C 264.25 244.847656 264.347656 245.003906 264.464844 245.238281 C 264.574219 245.464844 264.625 245.714844 264.625 245.980469 C 264.636719 247.039062 264.460938 248.027344 264.09375 248.953125 C 263.714844 249.882812 263.230469 250.675781 262.636719 251.328125 C 262.5 251.488281 262.339844 251.652344 262.152344 251.8125 C 261.972656 251.976562 261.796875 252.113281 261.636719 252.21875 C 261.015625 252.667969 260.359375 252.878906 259.683594 252.847656 C 258.996094 252.816406 258.390625 252.570312 257.871094 252.105469 C 257.152344 251.457031 256.75 250.644531 256.660156 249.664062 C 256.574219 248.675781 256.707031 247.59375 257.0625 246.417969 C 257.417969 245.246094 257.914062 244.058594 258.535156 242.863281 C 259.160156 241.667969 259.835938 240.519531 260.554688 239.421875 C 260.835938 238.96875 261.191406 238.476562 261.621094 237.933594 C 262.039062 237.398438 262.507812 236.84375 263.027344 236.269531 C 263.867188 235.324219 264.800781 234.410156 265.820312 233.523438 C 266.835938 232.632812 267.882812 231.894531 268.957031 231.3125 C 270.035156 230.730469 271.078125 230.414062 272.089844 230.359375 C 273.097656 230.304688 274.003906 230.640625 274.804688 231.359375 Z M 265.5625 239.179688 C 265.734375 239.492188 266.078125 240.0625 266.597656 240.890625 C 267.113281 241.710938 267.753906 242.667969 268.519531 243.765625 C 269.273438 244.859375 270.117188 246.007812 271.054688 247.226562 C 271.992188 248.433594 272.980469 249.574219 274.027344 250.648438 C 274.296875 250.921875 274.59375 251.222656 274.917969 251.554688 C 275.238281 251.890625 275.578125 252.214844 275.933594 252.523438 C 276.40625 252.957031 276.878906 253.339844 277.355469 253.671875 C 277.828125 253.996094 278.265625 254.199219 278.664062 254.285156 C 279.074219 254.375 279.394531 254.285156 279.632812 254.027344 C 279.773438 253.863281 279.894531 253.664062 279.988281 253.414062 C 280.085938 253.167969 280.125 252.988281 280.101562 252.878906 L 280.25 252.71875 C 280.65625 253.171875 280.847656 253.640625 280.8125 254.125 C 280.789062 254.609375 280.628906 255.023438 280.328125 255.367188 C 279.980469 255.746094 279.492188 255.988281 278.859375 256.09375 C 278.234375 256.191406 277.558594 256.039062 276.839844 255.625 C 275.714844 254.992188 274.546875 254.121094 273.316406 253.007812 C 272.242188 252.039062 271.179688 250.984375 270.136719 249.84375 C 269.09375 248.691406 268.105469 247.527344 267.179688 246.351562 C 266.253906 245.167969 265.441406 244.050781 264.738281 242.992188 C 264.039062 241.925781 263.507812 241 263.140625 240.214844 C 263.105469 240.140625 263.105469 240.074219 263.140625 240.019531 C 263.171875 239.953125 263.210938 239.902344 263.253906 239.859375 L 263.367188 239.726562 C 263.710938 239.339844 264.050781 239.105469 264.382812 239.015625 C 264.707031 238.921875 265.101562 238.976562 265.5625 239.179688 Z M 265.5625 239.179688 " fill-opacity="1" fill-rule="nonzero"/></svg>